Date Night (2010) 1080p X264 MKV AC3+DTS NLSubs-DMT

PLOT

In New York City, a case of mistaken identity turns
a bored married couple's attempt at a glamorous and
romantic evening into something more thrilling and dangerous. 
 
http://www.youtube.com/watch?v=aspBKFz2dBI

MM:    http://www.moviemeter.nl/film/61494

IMDB:    http://www.imdb.com/title/tt1279935/

INFO

Source...: w0rm-datenight1080p
Format...: X264 / Mkv 1920x816 23.98 Fps
Audio 1..: DTS
Audio 2..: AC3
Subs.....: Dutch

PLAYER INFO

General
Complete name                    : Date.Night.2010.1080p.X264.MKV.AC3.DTS.NLSubs-DMT.mkv
Format                           : Matroska
File size                        : 6.02 GiB
Duration                         : 1h 41mn
Overall bit rate                 : 8 484 Kbps
Encoded date                     : UTC 2010-10-24 10:20:49
Writing application              : mkvmerge v4.3.0 ('Escape from the Island') built on Sep  5 2010 10:30:51
Writing library                  : libebml v1.0.0 + libmatroska v1.0.0

Video
ID                               : 1
Format                           : AVC
Format/Info                      : Advanced Video Codec
Format profile                   : High@L4.1
Format settings, CABAC           : Yes
Format settings, ReFrames        : 5 frames
Format settings, GOP             : M=4, N=32
Muxing mode                      : Container profile=Unknown@4.1
Codec ID                         : V_MPEG4/ISO/AVC
Duration                         : 1h 41mn
Bit rate                         : 6 166 Kbps
Width                            : 1 920 pixels
Height                           : 816 pixels
Display aspect ratio             : 2.35:1
Frame rate                       : 23.976 fps
Color space                      : YUV
Chroma subsampling               : 4:2:0
Bit depth                        : 8 bits
Scan type                        : Progressive
Bits/(Pixel*Frame)               : 0.164
Stream size                      : 4.38 GiB (73%)
Writing library                  : x264 core 104 r1698 c41b8f0
Encoding settings                : cabac=1 / ref=5 / deblock=1:0:0 / analyse=0x3:0x113 / 
me=umh / subme=7 / psy=1 / psy_rd=1.00:0.00 / mixed_ref=1 / me_range=16 / chroma_me=1 / 
trellis=1 / 8x8dct=1 / cqm=0 / deadzone=21,11 / fast_pskip=0 / chroma_qp_offset=-2 / 
threads=3 / sliced_threads=0 / nr=0 / decimate=1 / interlaced=0 / constrained_intra=0 / 
bframes=3 / b_pyramid=2 / b_adapt=1 / b_bias=0 / direct=1 / weightb=1 / open_gop=0 / 
weightp=2 / keyint=250 / keyint_min=23 / scenecut=40 / intra_refresh=0 / rc_lookahead=40 / 
rc=crf / mbtree=1 / crf=20.0 / qcomp=0.60 / qpmin=10 / qpmax=51 / qpstep=4 / 
ip_ratio=1.40 / aq=1:1.00
Language                         : German

Audio #1
ID                               : 2
Format                           : DTS
Format/Info                      : Digital Theater Systems
Muxing mode                      : Header stripping
Codec ID                         : A_DTS
Duration                         : 1h 41mn
Bit rate mode                    : Constant
Bit rate                         : 1 510 Kbps
Channel(s)                       : 6 channels
Channel positions                : Front: L C R, Side: L R, LFE
Sampling rate                    : 48.0 KHz
Bit depth                        : 24 bits
Stream size                      : 1.07 GiB (18%)
Title                            : DTS
Language                         : English

Audio #2
ID                               : 4
Format                           : AC-3
Format/Info                      : Audio Coding 3
Mode extension                   : CM (complete main)
Muxing mode                      : Header stripping
Codec ID                         : A_AC3
Duration                         : 1h 41mn
Bit rate mode                    : Constant
Bit rate                         : 640 Kbps
Channel(s)                       : 6 channels
Channel positions                : Front: L C R, Side: L R, LFE
Sampling rate                    : 48.0 KHz
Bit depth                        : 16 bits
Stream size                      : 465 MiB (8%)
Title                            : AC3 640
Language                         : English

Text
ID                               : 3
Format                           : UTF-8
Codec ID                         : S_TEXT/UTF8
Codec ID/Info                    : UTF-8 Plain Text
Title                            : Nederlands
Language                         : Dutch

Menu
00:00:00.000                     : en:Chapter 01
00:04:37.485                     : en:Chapter 02
00:09:02.542                     : en:Chapter 03
00:14:24.989                     : en:Chapter 04
00:18:36.573                     : en:Chapter 05
00:23:43.296                     : en:Chapter 06
00:29:07.162                     : en:Chapter 07
00:35:39.637                     : en:Chapter 08
00:38:58.502                     : en:Chapter 09
00:42:40.933                     : en:Chapter 10
00:45:29.393                     : en:Chapter 11
00:46:59.691                     : en:Chapter 12
00:51:48.605                     : en:Chapter 13
00:58:35.678                     : en:Chapter 14
01:07:14.071                     : en:Chapter 15
01:10:25.304                     : en:Chapter 16
01:15:17.638                     : en:Chapter 17
01:17:42.574                     : en:Chapter 18
01:19:50.660                     : en:Chapter 19
01:24:01.244                     : en:Chapter 20
01:29:00.126                     : en:Chapter 21
01:32:08.397                     : en:Chapter 22
01:34:31.916                     : en:Chapter 23
01:36:26.238                     : en:Chapter 24
01:41:35.881                     : en:Chapter 25

